# xmcd
#
# Track frame offsets:
# 150
# 13534
# 29739
# 45986
# 63455
# 83614
# 89694
# 108632
# 129440
# 143119
# 155869
# 159093
#
# Disc length: 2461 seconds
#
#
# Revision: 2
# Processed by: cddbd v1.5.1PL2 Copyright (c) Steve Scherf et al.
# Submitted via: FreeRIP 2.90 
#
DISCID=99099b0c
DTITLE=Los redondos - Lobo suelto-Cordero atado
DYEAR=1900
DGENRE=
TTITLE0=Yo canibal
TTITLE1=Ladron de mi cerebro
TTITLE2=Es hora de levantarse, querido (dormiste bien?)
TTITLE3=Perdiendo el tiempo
TTITLE4=Cana seca y un membrillo
TTITLE5=Soga de Cain
TTITLE6=Lavi-rap
TTITLE7=El arte del buen comer
TTITLE8=Lobo, estas?
TTITLE9=Botija rapado
TTITLE10=San Telmo
TTITLE11=Etiqueta negra
EXTD=
EXTT0=
EXTT1=
EXTT2=
EXTT3=
EXTT4=
EXTT5=
EXTT6=
EXTT7=
EXTT8=
EXTT9=
EXTT10=
EXTT11=
PLAYORDER=
